<svg width="12" height="15" viewBox="0 0 12 15" fill="none" xmlns="http://www.w3.org/2000/svg">
<path d="M0.75 0H11.25C11.4489 0 11.6397 0.076554 11.7803 0.212821C11.921 0.349088 12 0.533906 12 0.726616V14.6362C12.0001 14.7012 11.9822 14.765 11.9482 14.821C11.9142 14.877 11.8653 14.9231 11.8066 14.9546C11.7479 14.986 11.6816 15.0017 11.6146 14.9999C11.5476 14.9981 11.4823 14.9789 11.4255 14.9443L6 11.6477L0.5745 14.9436C0.517776 14.9781 0.452541 14.9973 0.385576 14.9991C0.318612 15.001 0.252365 14.9854 0.193721 14.954C0.135078 14.9226 0.0861801 14.8766 0.0521121 14.8207C0.0180441 14.7648 4.98531e-05 14.7011 0 14.6362V0.726616C0 0.533906 0.0790178 0.349088 0.21967 0.212821C0.360322 0.076554 0.551088 0 0.75 0Z" fill="#4CAC67"/>
</svg>
