<svg width="15" height="15" viewBox="0 0 15 15" fill="none" xmlns="http://www.w3.org/2000/svg">
<g clip-path="url(#clip0_316_7533)">
<path d="M0 2.90199C0 2.13233 0.282206 1.3942 0.784535 0.849972C1.28686 0.305744 1.96817 0 2.67857 0H12.3214C13.0318 0 13.7131 0.305744 14.2155 0.849972C14.7178 1.3942 15 2.13233 15 2.90199V8.70596C15 9.08705 14.9307 9.46442 14.7961 9.8165C14.6615 10.1686 14.4642 10.4885 14.2155 10.758C13.9667 11.0274 13.6715 11.2412 13.3465 11.387C13.0215 11.5329 12.6732 11.6079 12.3214 11.6079H8.23714L4.95536 14.7189C4.8035 14.8627 4.61663 14.9561 4.41708 14.9879C4.21753 15.0197 4.01375 14.9885 3.8301 14.8982C3.64646 14.8078 3.49072 14.6621 3.38151 14.4784C3.2723 14.2946 3.21425 14.0807 3.21429 13.8622V11.6079H2.67857C1.96817 11.6079 1.28686 11.3022 0.784535 10.758C0.282206 10.2137 0 9.47561 0 8.70596V2.90199ZM2.67857 1.16079C2.25233 1.16079 1.84355 1.34424 1.54215 1.67078C1.24075 1.99731 1.07143 2.44019 1.07143 2.90199V8.70596C1.07143 9.16775 1.24075 9.61063 1.54215 9.93717C1.84355 10.2637 2.25233 10.4472 2.67857 10.4472H4.28571V13.8111L7.83429 10.4472H12.3214C12.7477 10.4472 13.1565 10.2637 13.4578 9.93717C13.7592 9.61063 13.9286 9.16775 13.9286 8.70596V2.90199C13.9286 2.44019 13.7592 1.99731 13.4578 1.67078C13.1565 1.34424 12.7477 1.16079 12.3214 1.16079H2.67857Z" fill="#4CAC67"/>
</g>
<defs>
<clipPath id="clip0_316_7533">
<rect width="15" height="15" fill="white"/>
</clipPath>
</defs>
</svg>
