<svg width="205" height="76" viewBox="0 0 205 76" fill="none" xmlns="http://www.w3.org/2000/svg">
<path d="M9.17168 48.45C9.17168 47.65 9.23835 47.0333 9.37168 46.6C7.07168 45.6667 5.43835 44.3667 4.47168 42.7C3.50501 41 3.02168 38.85 3.02168 36.25C3.02168 33.6167 3.47168 31.2333 4.37168 29.1C5.30501 26.9667 6.65501 25.15 8.42168 23.65C10.2217 22.15 12.4383 21 15.0717 20.2C17.705 19.3667 20.7383 18.95 24.1717 18.95C27.605 18.95 30.6383 19.3667 33.2717 20.2C35.905 21 38.1217 22.15 39.9217 23.65C41.7217 25.15 43.0717 26.9667 43.9717 29.1C44.905 31.2333 45.3717 33.6167 45.3717 36.25C45.3717 38.8833 44.8717 41.0333 43.8717 42.7C42.905 44.3667 41.2717 45.6667 38.9717 46.6C39.0717 47.1 39.1217 47.7167 39.1217 48.45V49.3C39.355 49.2667 39.5717 49.25 39.7717 49.25C40.005 49.2167 40.255 49.1833 40.5217 49.15C41.4883 49.05 42.3383 49.15 43.0717 49.45C43.8383 49.7167 44.4717 50.15 44.9717 50.75C45.505 51.35 45.905 52.0667 46.1717 52.9C46.4383 53.7 46.5717 54.5667 46.5717 55.5C46.5717 57.8333 46.0383 59.5833 44.9717 60.75C43.9383 61.95 42.4383 62.65 40.4717 62.85C34.8717 63.4167 29.4217 63.7 24.1217 63.7C18.855 63.7 13.4217 63.4167 7.82168 62.85C5.92168 62.65 4.43835 61.95 3.37168 60.75C2.30501 59.5833 1.77168 57.8333 1.77168 55.5C1.77168 54.5667 1.90501 53.7 2.17168 52.9C2.43835 52.0667 2.83835 51.35 3.37168 50.75C3.90501 50.15 4.53835 49.7167 5.27168 49.45C6.00501 49.15 6.85501 49.05 7.82168 49.15L9.17168 49.3V48.45ZM27.3717 39.65C27.5717 39.65 27.7217 39.55 27.8217 39.35C27.955 39.15 28.0217 38.9333 28.0217 38.7C28.0217 38.4667 27.955 38.25 27.8217 38.05C27.7217 37.85 27.5717 37.75 27.3717 37.75H20.9717C20.7717 37.75 20.605 37.85 20.4717 38.05C20.3717 38.25 20.3217 38.4667 20.3217 38.7C20.3217 38.9333 20.3717 39.15 20.4717 39.35C20.605 39.55 20.7717 39.65 20.9717 39.65H27.3717ZM21.3217 50C23.1883 50.0333 25.0717 50.0333 26.9717 50C26.9383 49.8 26.905 49.5833 26.8717 49.35C26.8717 49.0833 26.8717 48.8 26.8717 48.5C26.4383 48.5 25.9883 48.5167 25.5217 48.55C25.0883 48.55 24.6383 48.55 24.1717 48.55C23.705 48.55 23.2383 48.55 22.7717 48.55C22.3383 48.5167 21.8883 48.5 21.4217 48.5C21.4217 48.8 21.405 49.0833 21.3717 49.35C21.3717 49.5833 21.355 49.8 21.3217 50ZM84.6814 64.25C83.6814 64.25 82.7648 64.1 81.9314 63.8C81.0981 63.5333 80.3981 63.1167 79.8314 62.55C79.2648 61.9833 78.8481 61.2667 78.5814 60.4C78.3148 59.5667 78.2481 58.5833 78.3814 57.45C79.0148 52.05 79.3314 46.6833 79.3314 41.35C79.3314 36.0167 79.0314 30.7667 78.4314 25.6C78.1648 23.1 78.6314 21.2667 79.8314 20.1C81.0314 18.9 82.6481 18.3 84.6814 18.3C86.4481 18.3 87.8981 18.8 89.0314 19.8C90.1981 20.8 90.8814 22.3333 91.0814 24.4C91.6481 29.8333 91.9314 35.4667 91.9314 41.3C91.9314 47.1333 91.6481 52.7833 91.0814 58.25C90.8814 60.25 90.1981 61.75 89.0314 62.75C87.8981 63.75 86.4481 64.25 84.6814 64.25ZM48.9814 54.45C48.6481 52.35 48.4648 50.2667 48.4314 48.2C48.3981 46.1 48.5814 44.15 48.9814 42.35C49.1814 41.3833 49.4148 40.5 49.6814 39.7C49.9814 38.8667 50.3648 38.1667 50.8314 37.6C51.3314 37 51.9481 36.5333 52.6814 36.2C53.4148 35.8667 54.3314 35.7 55.4314 35.7C57.0314 35.7 58.6648 35.6667 60.3314 35.6C62.0314 35.5 63.6814 35.3167 65.2814 35.05C65.4814 35.0167 65.6148 34.9167 65.6814 34.75C65.7814 34.5833 65.8314 34.4 65.8314 34.2C65.8314 34 65.7814 33.8333 65.6814 33.7C65.6148 33.5333 65.4814 33.4667 65.2814 33.5C63.7814 33.7333 62.2481 33.9 60.6814 34C59.1148 34.1 57.5814 34.15 56.0814 34.15C54.7148 34.15 53.5814 34.0167 52.6814 33.75C51.7814 33.4833 51.0481 33.1 50.4814 32.6C49.9481 32.0667 49.5648 31.4167 49.3314 30.65C49.0981 29.8833 48.9814 29 48.9814 28C48.9814 23.9667 51.4481 21.45 56.3814 20.45C58.4148 20.0833 60.2648 19.8833 61.9314 19.85C63.6314 19.8167 65.3648 19.9333 67.1314 20.2C68.1314 20.3333 69.0648 20.5333 69.9314 20.8C70.8314 21.0667 71.6481 21.45 72.3814 21.95C73.1148 22.45 73.7314 23.1 74.2314 23.9C74.7314 24.6667 75.0981 25.6167 75.3314 26.75C75.6981 28.75 75.8814 30.8167 75.8814 32.95C75.8814 35.05 75.6981 36.95 75.3314 38.65C75.0648 39.7167 74.5648 40.4667 73.8314 40.9C73.0981 41.3 72.1981 41.5 71.1314 41.5C68.2648 41.5333 65.5981 41.7667 63.1314 42.2C60.6648 42.6 58.5981 43.1833 56.9314 43.95C56.7314 44.05 56.5981 44.2 56.5314 44.4C56.4981 44.6 56.5148 44.8 56.5814 45C56.6814 45.1667 56.7981 45.3 56.9314 45.4C57.0981 45.5 57.2814 45.5167 57.4814 45.45C58.1814 45.15 58.9981 44.85 59.9314 44.55C60.8648 44.25 61.8314 43.9833 62.8314 43.75C63.8314 43.5167 64.8314 43.3333 65.8314 43.2C66.8314 43.0667 67.7814 43 68.6814 43C71.4148 43 73.4481 43.7 74.7814 45.1C76.1481 46.5 76.9481 48.5167 77.1814 51.15C77.3148 53.35 77.0314 55.1833 76.3314 56.65C75.6648 58.0833 74.6981 59.2167 73.4314 60.05C72.1648 60.8833 70.6981 61.4667 69.0314 61.8C67.3648 62.1333 65.6314 62.3 63.8314 62.3C59.4648 62.3 55.9814 61.6167 53.3814 60.25C50.8148 58.8833 49.3481 56.95 48.9814 54.45ZM95.8412 33.55C95.8412 31.45 96.4579 29.8 97.6912 28.6C98.9245 27.3667 100.541 26.75 102.541 26.75C104.575 26.75 106.175 27.3667 107.341 28.6C108.541 29.8 109.141 31.45 109.141 33.55C109.141 34.4167 108.975 35.2167 108.641 35.95C108.308 36.6833 107.841 37.3167 107.241 37.85C106.675 38.3833 105.975 38.8 105.141 39.1C104.341 39.4 103.475 39.55 102.541 39.55C100.541 39.55 98.9245 39 97.6912 37.9C96.4579 36.7667 95.8412 35.3167 95.8412 33.55ZM95.8412 51.5C95.8412 49.4 96.4579 47.7333 97.6912 46.5C98.9245 45.2667 100.541 44.65 102.541 44.65C104.575 44.65 106.175 45.2667 107.341 46.5C108.541 47.7333 109.141 49.4 109.141 51.5C109.141 52.3667 108.975 53.1667 108.641 53.9C108.308 54.6333 107.841 55.2667 107.241 55.8C106.675 56.3333 105.975 56.75 105.141 57.05C104.341 57.35 103.475 57.5 102.541 57.5C101.541 57.5 100.625 57.35 99.7912 57.05C98.9912 56.75 98.2912 56.3333 97.6912 55.8C97.1245 55.2667 96.6745 54.6333 96.3412 53.9C96.0079 53.1667 95.8412 52.3667 95.8412 51.5ZM125.709 50.7C125.709 50.2667 125.709 49.85 125.709 49.45C125.709 49.0167 125.742 48.5833 125.809 48.15H124.759C121.192 48.15 118.375 47.7 116.309 46.8C114.275 45.9 113.192 44.25 113.059 41.85C112.992 40.5833 113.092 39.4833 113.359 38.55C113.625 37.6167 114.009 36.8333 114.509 36.2C115.009 35.5333 115.592 35.0167 116.259 34.65C116.959 34.2833 117.709 34.0333 118.509 33.9C120.109 33.6333 121.575 33.2167 122.909 32.65C124.242 32.0833 125.259 31.3667 125.959 30.5C124.525 30.4667 123.125 30.4333 121.759 30.4C120.425 30.3333 119.125 30.2333 117.859 30.1C116.525 29.9667 115.425 29.5 114.559 28.7C113.725 27.8667 113.309 26.7 113.309 25.2C113.309 23.7 113.725 22.6 114.559 21.9C115.425 21.2 116.525 20.7667 117.859 20.6C120.325 20.3333 122.975 20.15 125.809 20.05C128.642 19.9167 131.442 19.85 134.209 19.85C136.942 19.85 139.725 19.9167 142.559 20.05C145.425 20.15 148.092 20.3333 150.559 20.6C151.892 20.7667 152.975 21.2 153.809 21.9C154.642 22.6 155.059 23.7 155.059 25.2C155.059 26.7 154.642 27.8667 153.809 28.7C152.975 29.5 151.892 29.9667 150.559 30.1C149.325 30.2333 148.025 30.3333 146.659 30.4C145.325 30.4333 143.959 30.4667 142.559 30.5C142.992 30.9667 143.525 31.3833 144.159 31.75C144.792 32.0833 145.475 32.4 146.209 32.7C146.942 32.9667 147.692 33.2167 148.459 33.45C149.225 33.65 149.975 33.8167 150.709 33.95C151.609 34.1167 152.375 34.45 153.009 34.95C153.675 35.45 154.192 36.0667 154.559 36.8C154.959 37.5 155.225 38.3 155.359 39.2C155.492 40.0667 155.509 40.95 155.409 41.85C155.109 44.2167 154.309 45.8833 153.009 46.85C151.742 47.7833 149.792 48.25 147.159 48.25C146.225 48.25 145.375 48.2333 144.609 48.2C143.842 48.1667 143.159 48.1167 142.559 48.05C142.625 48.5167 142.659 48.9667 142.659 49.4C142.659 49.8 142.659 50.2333 142.659 50.7C143.959 50.6333 145.259 50.55 146.559 50.45C147.859 50.35 149.192 50.2167 150.559 50.05C151.525 49.95 152.375 50.05 153.109 50.35C153.875 50.6167 154.509 51.0333 155.009 51.6C155.542 52.1333 155.942 52.7833 156.209 53.55C156.475 54.3167 156.609 55.15 156.609 56.05C156.609 58.25 156.075 59.9 155.009 61C153.975 62.1 152.475 62.75 150.509 62.95C144.942 63.4833 139.492 63.75 134.159 63.75C128.859 63.7833 123.425 63.5167 117.859 62.95C115.959 62.7833 114.475 62.1333 113.409 61C112.342 59.9 111.809 58.25 111.809 56.05C111.809 55.15 111.942 54.3167 112.209 53.55C112.475 52.7833 112.875 52.1333 113.409 51.6C113.942 51.0333 114.575 50.6167 115.309 50.35C116.042 50.05 116.892 49.95 117.859 50.05C119.192 50.1833 120.509 50.3167 121.809 50.45C123.109 50.55 124.409 50.6333 125.709 50.7ZM136.209 44.05C136.375 44.05 136.525 44.0667 136.659 44.1C136.792 44.1 136.925 44.1 137.059 44.1C137.225 44.1 137.359 44.1167 137.459 44.15C137.592 44.15 137.725 44.15 137.859 44.15C137.792 43.7833 137.759 43.4167 137.759 43.05C137.759 42.65 137.759 42.2167 137.759 41.75C137.759 40.0833 137.409 38.6667 136.709 37.5C136.042 36.3333 134.942 35.2833 133.409 34.35C133.209 34.2167 132.992 34.1667 132.759 34.2C132.525 34.2333 132.325 34.3167 132.159 34.45C132.025 34.55 131.959 34.7 131.959 34.9C131.992 35.0667 132.142 35.2167 132.409 35.35C133.575 36.0167 134.509 36.8667 135.209 37.9C135.909 38.9 136.259 40.3167 136.259 42.15C136.259 42.5167 136.259 42.8667 136.259 43.2C136.259 43.5 136.242 43.7833 136.209 44.05ZM194.719 64.25C193.719 64.25 192.802 64.1 191.969 63.8C191.135 63.5333 190.435 63.1167 189.869 62.55C189.302 61.9833 188.885 61.2667 188.619 60.4C188.352 59.5667 188.285 58.5833 188.419 57.45C189.052 52.05 189.369 46.6833 189.369 41.35C189.369 36.0167 189.069 30.7667 188.469 25.6C188.202 23.1 188.669 21.2667 189.869 20.1C191.069 18.9 192.685 18.3 194.719 18.3C196.485 18.3 197.935 18.8 199.069 19.8C200.235 20.8 200.919 22.3333 201.119 24.4C201.685 29.8333 201.969 35.4667 201.969 41.3C201.969 47.1333 201.685 52.7833 201.119 58.25C200.919 60.25 200.235 61.75 199.069 62.75C197.935 63.75 196.485 64.25 194.719 64.25ZM159.019 54.45C158.685 52.35 158.502 50.2667 158.469 48.2C158.435 46.1 158.619 44.15 159.019 42.35C159.219 41.3833 159.452 40.5 159.719 39.7C160.019 38.8667 160.402 38.1667 160.869 37.6C161.369 37 161.985 36.5333 162.719 36.2C163.452 35.8667 164.369 35.7 165.469 35.7C167.069 35.7 168.702 35.6667 170.369 35.6C172.069 35.5 173.719 35.3167 175.319 35.05C175.519 35.0167 175.652 34.9167 175.719 34.75C175.819 34.5833 175.869 34.4 175.869 34.2C175.869 34 175.819 33.8333 175.719 33.7C175.652 33.5333 175.519 33.4667 175.319 33.5C173.819 33.7333 172.285 33.9 170.719 34C169.152 34.1 167.619 34.15 166.119 34.15C164.752 34.15 163.619 34.0167 162.719 33.75C161.819 33.4833 161.085 33.1 160.519 32.6C159.985 32.0667 159.602 31.4167 159.369 30.65C159.135 29.8833 159.019 29 159.019 28C159.019 23.9667 161.485 21.45 166.419 20.45C168.452 20.0833 170.302 19.8833 171.969 19.85C173.669 19.8167 175.402 19.9333 177.169 20.2C178.169 20.3333 179.102 20.5333 179.969 20.8C180.869 21.0667 181.685 21.45 182.419 21.95C183.152 22.45 183.769 23.1 184.269 23.9C184.769 24.6667 185.135 25.6167 185.369 26.75C185.735 28.75 185.919 30.8167 185.919 32.95C185.919 35.05 185.735 36.95 185.369 38.65C185.102 39.7167 184.602 40.4667 183.869 40.9C183.135 41.3 182.235 41.5 181.169 41.5C178.302 41.5333 175.635 41.7667 173.169 42.2C170.702 42.6 168.635 43.1833 166.969 43.95C166.769 44.05 166.635 44.2 166.569 44.4C166.535 44.6 166.552 44.8 166.619 45C166.719 45.1667 166.835 45.3 166.969 45.4C167.135 45.5 167.319 45.5167 167.519 45.45C168.219 45.15 169.035 44.85 169.969 44.55C170.902 44.25 171.869 43.9833 172.869 43.75C173.869 43.5167 174.869 43.3333 175.869 43.2C176.869 43.0667 177.819 43 178.719 43C181.452 43 183.485 43.7 184.819 45.1C186.185 46.5 186.985 48.5167 187.219 51.15C187.352 53.35 187.069 55.1833 186.369 56.65C185.702 58.0833 184.735 59.2167 183.469 60.05C182.202 60.8833 180.735 61.4667 179.069 61.8C177.402 62.1333 175.669 62.3 173.869 62.3C169.502 62.3 166.019 61.6167 163.419 60.25C160.852 58.8833 159.385 56.95 159.019 54.45Z" fill="#EAF0EC"/>
<path d="M9.17168 41.45C9.17168 40.65 9.23835 40.0333 9.37168 39.6C7.07168 38.6667 5.43835 37.3667 4.47168 35.7C3.50501 34 3.02168 31.85 3.02168 29.25C3.02168 26.6167 3.47168 24.2333 4.37168 22.1C5.30501 19.9667 6.65501 18.15 8.42168 16.65C10.2217 15.15 12.4383 14 15.0717 13.2C17.705 12.3667 20.7383 11.95 24.1717 11.95C27.605 11.95 30.6383 12.3667 33.2717 13.2C35.905 14 38.1217 15.15 39.9217 16.65C41.7217 18.15 43.0717 19.9667 43.9717 22.1C44.905 24.2333 45.3717 26.6167 45.3717 29.25C45.3717 31.8833 44.8717 34.0333 43.8717 35.7C42.905 37.3667 41.2717 38.6667 38.9717 39.6C39.0717 40.1 39.1217 40.7167 39.1217 41.45V42.3C39.355 42.2667 39.5717 42.25 39.7717 42.25C40.005 42.2167 40.255 42.1833 40.5217 42.15C41.4883 42.05 42.3383 42.15 43.0717 42.45C43.8383 42.7167 44.4717 43.15 44.9717 43.75C45.505 44.35 45.905 45.0667 46.1717 45.9C46.4383 46.7 46.5717 47.5667 46.5717 48.5C46.5717 50.8333 46.0383 52.5833 44.9717 53.75C43.9383 54.95 42.4383 55.65 40.4717 55.85C34.8717 56.4167 29.4217 56.7 24.1217 56.7C18.855 56.7 13.4217 56.4167 7.82168 55.85C5.92168 55.65 4.43835 54.95 3.37168 53.75C2.30501 52.5833 1.77168 50.8333 1.77168 48.5C1.77168 47.5667 1.90501 46.7 2.17168 45.9C2.43835 45.0667 2.83835 44.35 3.37168 43.75C3.90501 43.15 4.53835 42.7167 5.27168 42.45C6.00501 42.15 6.85501 42.05 7.82168 42.15L9.17168 42.3V41.45ZM27.3717 32.65C27.5717 32.65 27.7217 32.55 27.8217 32.35C27.955 32.15 28.0217 31.9333 28.0217 31.7C28.0217 31.4667 27.955 31.25 27.8217 31.05C27.7217 30.85 27.5717 30.75 27.3717 30.75H20.9717C20.7717 30.75 20.605 30.85 20.4717 31.05C20.3717 31.25 20.3217 31.4667 20.3217 31.7C20.3217 31.9333 20.3717 32.15 20.4717 32.35C20.605 32.55 20.7717 32.65 20.9717 32.65H27.3717ZM21.3217 43C23.1883 43.0333 25.0717 43.0333 26.9717 43C26.9383 42.8 26.905 42.5833 26.8717 42.35C26.8717 42.0833 26.8717 41.8 26.8717 41.5C26.4383 41.5 25.9883 41.5167 25.5217 41.55C25.0883 41.55 24.6383 41.55 24.1717 41.55C23.705 41.55 23.2383 41.55 22.7717 41.55C22.3383 41.5167 21.8883 41.5 21.4217 41.5C21.4217 41.8 21.405 42.0833 21.3717 42.35C21.3717 42.5833 21.355 42.8 21.3217 43ZM84.6814 57.25C83.6814 57.25 82.7648 57.1 81.9314 56.8C81.0981 56.5333 80.3981 56.1167 79.8314 55.55C79.2648 54.9833 78.8481 54.2667 78.5814 53.4C78.3148 52.5667 78.2481 51.5833 78.3814 50.45C79.0148 45.05 79.3314 39.6833 79.3314 34.35C79.3314 29.0167 79.0314 23.7667 78.4314 18.6C78.1648 16.1 78.6314 14.2667 79.8314 13.1C81.0314 11.9 82.6481 11.3 84.6814 11.3C86.4481 11.3 87.8981 11.8 89.0314 12.8C90.1981 13.8 90.8814 15.3333 91.0814 17.4C91.6481 22.8333 91.9314 28.4667 91.9314 34.3C91.9314 40.1333 91.6481 45.7833 91.0814 51.25C90.8814 53.25 90.1981 54.75 89.0314 55.75C87.8981 56.75 86.4481 57.25 84.6814 57.25ZM48.9814 47.45C48.6481 45.35 48.4648 43.2667 48.4314 41.2C48.3981 39.1 48.5814 37.15 48.9814 35.35C49.1814 34.3833 49.4148 33.5 49.6814 32.7C49.9814 31.8667 50.3648 31.1667 50.8314 30.6C51.3314 30 51.9481 29.5333 52.6814 29.2C53.4148 28.8667 54.3314 28.7 55.4314 28.7C57.0314 28.7 58.6648 28.6667 60.3314 28.6C62.0314 28.5 63.6814 28.3167 65.2814 28.05C65.4814 28.0167 65.6148 27.9167 65.6814 27.75C65.7814 27.5833 65.8314 27.4 65.8314 27.2C65.8314 27 65.7814 26.8333 65.6814 26.7C65.6148 26.5333 65.4814 26.4667 65.2814 26.5C63.7814 26.7333 62.2481 26.9 60.6814 27C59.1148 27.1 57.5814 27.15 56.0814 27.15C54.7148 27.15 53.5814 27.0167 52.6814 26.75C51.7814 26.4833 51.0481 26.1 50.4814 25.6C49.9481 25.0667 49.5648 24.4167 49.3314 23.65C49.0981 22.8833 48.9814 22 48.9814 21C48.9814 16.9667 51.4481 14.45 56.3814 13.45C58.4148 13.0833 60.2648 12.8833 61.9314 12.85C63.6314 12.8167 65.3648 12.9333 67.1314 13.2C68.1314 13.3333 69.0648 13.5333 69.9314 13.8C70.8314 14.0667 71.6481 14.45 72.3814 14.95C73.1148 15.45 73.7314 16.1 74.2314 16.9C74.7314 17.6667 75.0981 18.6167 75.3314 19.75C75.6981 21.75 75.8814 23.8167 75.8814 25.95C75.8814 28.05 75.6981 29.95 75.3314 31.65C75.0648 32.7167 74.5648 33.4667 73.8314 33.9C73.0981 34.3 72.1981 34.5 71.1314 34.5C68.2648 34.5333 65.5981 34.7667 63.1314 35.2C60.6648 35.6 58.5981 36.1833 56.9314 36.95C56.7314 37.05 56.5981 37.2 56.5314 37.4C56.4981 37.6 56.5148 37.8 56.5814 38C56.6814 38.1667 56.7981 38.3 56.9314 38.4C57.0981 38.5 57.2814 38.5167 57.4814 38.45C58.1814 38.15 58.9981 37.85 59.9314 37.55C60.8648 37.25 61.8314 36.9833 62.8314 36.75C63.8314 36.5167 64.8314 36.3333 65.8314 36.2C66.8314 36.0667 67.7814 36 68.6814 36C71.4148 36 73.4481 36.7 74.7814 38.1C76.1481 39.5 76.9481 41.5167 77.1814 44.15C77.3148 46.35 77.0314 48.1833 76.3314 49.65C75.6648 51.0833 74.6981 52.2167 73.4314 53.05C72.1648 53.8833 70.6981 54.4667 69.0314 54.8C67.3648 55.1333 65.6314 55.3 63.8314 55.3C59.4648 55.3 55.9814 54.6167 53.3814 53.25C50.8148 51.8833 49.3481 49.95 48.9814 47.45ZM95.8412 26.55C95.8412 24.45 96.4579 22.8 97.6912 21.6C98.9245 20.3667 100.541 19.75 102.541 19.75C104.575 19.75 106.175 20.3667 107.341 21.6C108.541 22.8 109.141 24.45 109.141 26.55C109.141 27.4167 108.975 28.2167 108.641 28.95C108.308 29.6833 107.841 30.3167 107.241 30.85C106.675 31.3833 105.975 31.8 105.141 32.1C104.341 32.4 103.475 32.55 102.541 32.55C100.541 32.55 98.9245 32 97.6912 30.9C96.4579 29.7667 95.8412 28.3167 95.8412 26.55ZM95.8412 44.5C95.8412 42.4 96.4579 40.7333 97.6912 39.5C98.9245 38.2667 100.541 37.65 102.541 37.65C104.575 37.65 106.175 38.2667 107.341 39.5C108.541 40.7333 109.141 42.4 109.141 44.5C109.141 45.3667 108.975 46.1667 108.641 46.9C108.308 47.6333 107.841 48.2667 107.241 48.8C106.675 49.3333 105.975 49.75 105.141 50.05C104.341 50.35 103.475 50.5 102.541 50.5C101.541 50.5 100.625 50.35 99.7912 50.05C98.9912 49.75 98.2912 49.3333 97.6912 48.8C97.1245 48.2667 96.6745 47.6333 96.3412 46.9C96.0079 46.1667 95.8412 45.3667 95.8412 44.5ZM125.709 43.7C125.709 43.2667 125.709 42.85 125.709 42.45C125.709 42.0167 125.742 41.5833 125.809 41.15H124.759C121.192 41.15 118.375 40.7 116.309 39.8C114.275 38.9 113.192 37.25 113.059 34.85C112.992 33.5833 113.092 32.4833 113.359 31.55C113.625 30.6167 114.009 29.8333 114.509 29.2C115.009 28.5333 115.592 28.0167 116.259 27.65C116.959 27.2833 117.709 27.0333 118.509 26.9C120.109 26.6333 121.575 26.2167 122.909 25.65C124.242 25.0833 125.259 24.3667 125.959 23.5C124.525 23.4667 123.125 23.4333 121.759 23.4C120.425 23.3333 119.125 23.2333 117.859 23.1C116.525 22.9667 115.425 22.5 114.559 21.7C113.725 20.8667 113.309 19.7 113.309 18.2C113.309 16.7 113.725 15.6 114.559 14.9C115.425 14.2 116.525 13.7667 117.859 13.6C120.325 13.3333 122.975 13.15 125.809 13.05C128.642 12.9167 131.442 12.85 134.209 12.85C136.942 12.85 139.725 12.9167 142.559 13.05C145.425 13.15 148.092 13.3333 150.559 13.6C151.892 13.7667 152.975 14.2 153.809 14.9C154.642 15.6 155.059 16.7 155.059 18.2C155.059 19.7 154.642 20.8667 153.809 21.7C152.975 22.5 151.892 22.9667 150.559 23.1C149.325 23.2333 148.025 23.3333 146.659 23.4C145.325 23.4333 143.959 23.4667 142.559 23.5C142.992 23.9667 143.525 24.3833 144.159 24.75C144.792 25.0833 145.475 25.4 146.209 25.7C146.942 25.9667 147.692 26.2167 148.459 26.45C149.225 26.65 149.975 26.8167 150.709 26.95C151.609 27.1167 152.375 27.45 153.009 27.95C153.675 28.45 154.192 29.0667 154.559 29.8C154.959 30.5 155.225 31.3 155.359 32.2C155.492 33.0667 155.509 33.95 155.409 34.85C155.109 37.2167 154.309 38.8833 153.009 39.85C151.742 40.7833 149.792 41.25 147.159 41.25C146.225 41.25 145.375 41.2333 144.609 41.2C143.842 41.1667 143.159 41.1167 142.559 41.05C142.625 41.5167 142.659 41.9667 142.659 42.4C142.659 42.8 142.659 43.2333 142.659 43.7C143.959 43.6333 145.259 43.55 146.559 43.45C147.859 43.35 149.192 43.2167 150.559 43.05C151.525 42.95 152.375 43.05 153.109 43.35C153.875 43.6167 154.509 44.0333 155.009 44.6C155.542 45.1333 155.942 45.7833 156.209 46.55C156.475 47.3167 156.609 48.15 156.609 49.05C156.609 51.25 156.075 52.9 155.009 54C153.975 55.1 152.475 55.75 150.509 55.95C144.942 56.4833 139.492 56.75 134.159 56.75C128.859 56.7833 123.425 56.5167 117.859 55.95C115.959 55.7833 114.475 55.1333 113.409 54C112.342 52.9 111.809 51.25 111.809 49.05C111.809 48.15 111.942 47.3167 112.209 46.55C112.475 45.7833 112.875 45.1333 113.409 44.6C113.942 44.0333 114.575 43.6167 115.309 43.35C116.042 43.05 116.892 42.95 117.859 43.05C119.192 43.1833 120.509 43.3167 121.809 43.45C123.109 43.55 124.409 43.6333 125.709 43.7ZM136.209 37.05C136.375 37.05 136.525 37.0667 136.659 37.1C136.792 37.1 136.925 37.1 137.059 37.1C137.225 37.1 137.359 37.1167 137.459 37.15C137.592 37.15 137.725 37.15 137.859 37.15C137.792 36.7833 137.759 36.4167 137.759 36.05C137.759 35.65 137.759 35.2167 137.759 34.75C137.759 33.0833 137.409 31.6667 136.709 30.5C136.042 29.3333 134.942 28.2833 133.409 27.35C133.209 27.2167 132.992 27.1667 132.759 27.2C132.525 27.2333 132.325 27.3167 132.159 27.45C132.025 27.55 131.959 27.7 131.959 27.9C131.992 28.0667 132.142 28.2167 132.409 28.35C133.575 29.0167 134.509 29.8667 135.209 30.9C135.909 31.9 136.259 33.3167 136.259 35.15C136.259 35.5167 136.259 35.8667 136.259 36.2C136.259 36.5 136.242 36.7833 136.209 37.05ZM194.719 57.25C193.719 57.25 192.802 57.1 191.969 56.8C191.135 56.5333 190.435 56.1167 189.869 55.55C189.302 54.9833 188.885 54.2667 188.619 53.4C188.352 52.5667 188.285 51.5833 188.419 50.45C189.052 45.05 189.369 39.6833 189.369 34.35C189.369 29.0167 189.069 23.7667 188.469 18.6C188.202 16.1 188.669 14.2667 189.869 13.1C191.069 11.9 192.685 11.3 194.719 11.3C196.485 11.3 197.935 11.8 199.069 12.8C200.235 13.8 200.919 15.3333 201.119 17.4C201.685 22.8333 201.969 28.4667 201.969 34.3C201.969 40.1333 201.685 45.7833 201.119 51.25C200.919 53.25 200.235 54.75 199.069 55.75C197.935 56.75 196.485 57.25 194.719 57.25ZM159.019 47.45C158.685 45.35 158.502 43.2667 158.469 41.2C158.435 39.1 158.619 37.15 159.019 35.35C159.219 34.3833 159.452 33.5 159.719 32.7C160.019 31.8667 160.402 31.1667 160.869 30.6C161.369 30 161.985 29.5333 162.719 29.2C163.452 28.8667 164.369 28.7 165.469 28.7C167.069 28.7 168.702 28.6667 170.369 28.6C172.069 28.5 173.719 28.3167 175.319 28.05C175.519 28.0167 175.652 27.9167 175.719 27.75C175.819 27.5833 175.869 27.4 175.869 27.2C175.869 27 175.819 26.8333 175.719 26.7C175.652 26.5333 175.519 26.4667 175.319 26.5C173.819 26.7333 172.285 26.9 170.719 27C169.152 27.1 167.619 27.15 166.119 27.15C164.752 27.15 163.619 27.0167 162.719 26.75C161.819 26.4833 161.085 26.1 160.519 25.6C159.985 25.0667 159.602 24.4167 159.369 23.65C159.135 22.8833 159.019 22 159.019 21C159.019 16.9667 161.485 14.45 166.419 13.45C168.452 13.0833 170.302 12.8833 171.969 12.85C173.669 12.8167 175.402 12.9333 177.169 13.2C178.169 13.3333 179.102 13.5333 179.969 13.8C180.869 14.0667 181.685 14.45 182.419 14.95C183.152 15.45 183.769 16.1 184.269 16.9C184.769 17.6667 185.135 18.6167 185.369 19.75C185.735 21.75 185.919 23.8167 185.919 25.95C185.919 28.05 185.735 29.95 185.369 31.65C185.102 32.7167 184.602 33.4667 183.869 33.9C183.135 34.3 182.235 34.5 181.169 34.5C178.302 34.5333 175.635 34.7667 173.169 35.2C170.702 35.6 168.635 36.1833 166.969 36.95C166.769 37.05 166.635 37.2 166.569 37.4C166.535 37.6 166.552 37.8 166.619 38C166.719 38.1667 166.835 38.3 166.969 38.4C167.135 38.5 167.319 38.5167 167.519 38.45C168.219 38.15 169.035 37.85 169.969 37.55C170.902 37.25 171.869 36.9833 172.869 36.75C173.869 36.5167 174.869 36.3333 175.869 36.2C176.869 36.0667 177.819 36 178.719 36C181.452 36 183.485 36.7 184.819 38.1C186.185 39.5 186.985 41.5167 187.219 44.15C187.352 46.35 187.069 48.1833 186.369 49.65C185.702 51.0833 184.735 52.2167 183.469 53.05C182.202 53.8833 180.735 54.4667 179.069 54.8C177.402 55.1333 175.669 55.3 173.869 55.3C169.502 55.3 166.019 54.6167 163.419 53.25C160.852 51.8833 159.385 49.95 159.019 47.45Z" fill="#4CAC67"/>
</svg>
