<svg width="205" height="79" viewBox="0 0 205 79" fill="none" xmlns="http://www.w3.org/2000/svg">
<path d="M9.17168 50.45C9.17168 49.65 9.23835 49.0333 9.37168 48.6C7.07168 47.6667 5.43835 46.3667 4.47168 44.7C3.50501 43 3.02168 40.85 3.02168 38.25C3.02168 35.6167 3.47168 33.2333 4.37168 31.1C5.30501 28.9667 6.65501 27.15 8.42168 25.65C10.2217 24.15 12.4383 23 15.0717 22.2C17.705 21.3667 20.7383 20.95 24.1717 20.95C27.605 20.95 30.6383 21.3667 33.2717 22.2C35.905 23 38.1217 24.15 39.9217 25.65C41.7217 27.15 43.0717 28.9667 43.9717 31.1C44.905 33.2333 45.3717 35.6167 45.3717 38.25C45.3717 40.8833 44.8717 43.0333 43.8717 44.7C42.905 46.3667 41.2717 47.6667 38.9717 48.6C39.0717 49.1 39.1217 49.7167 39.1217 50.45V51.3C39.355 51.2667 39.5717 51.25 39.7717 51.25C40.005 51.2167 40.255 51.1833 40.5217 51.15C41.4883 51.05 42.3383 51.15 43.0717 51.45C43.8383 51.7167 44.4717 52.15 44.9717 52.75C45.505 53.35 45.905 54.0667 46.1717 54.9C46.4383 55.7 46.5717 56.5667 46.5717 57.5C46.5717 59.8333 46.0383 61.5833 44.9717 62.75C43.9383 63.95 42.4383 64.65 40.4717 64.85C34.8717 65.4167 29.4217 65.7 24.1217 65.7C18.855 65.7 13.4217 65.4167 7.82168 64.85C5.92168 64.65 4.43835 63.95 3.37168 62.75C2.30501 61.5833 1.77168 59.8333 1.77168 57.5C1.77168 56.5667 1.90501 55.7 2.17168 54.9C2.43835 54.0667 2.83835 53.35 3.37168 52.75C3.90501 52.15 4.53835 51.7167 5.27168 51.45C6.00501 51.15 6.85501 51.05 7.82168 51.15L9.17168 51.3V50.45ZM27.3717 41.65C27.5717 41.65 27.7217 41.55 27.8217 41.35C27.955 41.15 28.0217 40.9333 28.0217 40.7C28.0217 40.4667 27.955 40.25 27.8217 40.05C27.7217 39.85 27.5717 39.75 27.3717 39.75H20.9717C20.7717 39.75 20.605 39.85 20.4717 40.05C20.3717 40.25 20.3217 40.4667 20.3217 40.7C20.3217 40.9333 20.3717 41.15 20.4717 41.35C20.605 41.55 20.7717 41.65 20.9717 41.65H27.3717ZM21.3217 52C23.1883 52.0333 25.0717 52.0333 26.9717 52C26.9383 51.8 26.905 51.5833 26.8717 51.35C26.8717 51.0833 26.8717 50.8 26.8717 50.5C26.4383 50.5 25.9883 50.5167 25.5217 50.55C25.0883 50.55 24.6383 50.55 24.1717 50.55C23.705 50.55 23.2383 50.55 22.7717 50.55C22.3383 50.5167 21.8883 50.5 21.4217 50.5C21.4217 50.8 21.405 51.0833 21.3717 51.35C21.3717 51.5833 21.355 51.8 21.3217 52ZM84.6814 66.25C83.6814 66.25 82.7648 66.1 81.9314 65.8C81.0981 65.5333 80.3981 65.1167 79.8314 64.55C79.2648 63.9833 78.8481 63.2667 78.5814 62.4C78.3148 61.5667 78.2481 60.5833 78.3814 59.45C79.0148 54.05 79.3314 48.6833 79.3314 43.35C79.3314 38.0167 79.0314 32.7667 78.4314 27.6C78.1648 25.1 78.6314 23.2667 79.8314 22.1C81.0314 20.9 82.6481 20.3 84.6814 20.3C86.4481 20.3 87.8981 20.8 89.0314 21.8C90.1981 22.8 90.8814 24.3333 91.0814 26.4C91.6481 31.8333 91.9314 37.4667 91.9314 43.3C91.9314 49.1333 91.6481 54.7833 91.0814 60.25C90.8814 62.25 90.1981 63.75 89.0314 64.75C87.8981 65.75 86.4481 66.25 84.6814 66.25ZM48.9814 56.45C48.6481 54.35 48.4648 52.2667 48.4314 50.2C48.3981 48.1 48.5814 46.15 48.9814 44.35C49.1814 43.3833 49.4148 42.5 49.6814 41.7C49.9814 40.8667 50.3648 40.1667 50.8314 39.6C51.3314 39 51.9481 38.5333 52.6814 38.2C53.4148 37.8667 54.3314 37.7 55.4314 37.7C57.0314 37.7 58.6648 37.6667 60.3314 37.6C62.0314 37.5 63.6814 37.3167 65.2814 37.05C65.4814 37.0167 65.6148 36.9167 65.6814 36.75C65.7814 36.5833 65.8314 36.4 65.8314 36.2C65.8314 36 65.7814 35.8333 65.6814 35.7C65.6148 35.5333 65.4814 35.4667 65.2814 35.5C63.7814 35.7333 62.2481 35.9 60.6814 36C59.1148 36.1 57.5814 36.15 56.0814 36.15C54.7148 36.15 53.5814 36.0167 52.6814 35.75C51.7814 35.4833 51.0481 35.1 50.4814 34.6C49.9481 34.0667 49.5648 33.4167 49.3314 32.65C49.0981 31.8833 48.9814 31 48.9814 30C48.9814 25.9667 51.4481 23.45 56.3814 22.45C58.4148 22.0833 60.2648 21.8833 61.9314 21.85C63.6314 21.8167 65.3648 21.9333 67.1314 22.2C68.1314 22.3333 69.0648 22.5333 69.9314 22.8C70.8314 23.0667 71.6481 23.45 72.3814 23.95C73.1148 24.45 73.7314 25.1 74.2314 25.9C74.7314 26.6667 75.0981 27.6167 75.3314 28.75C75.6981 30.75 75.8814 32.8167 75.8814 34.95C75.8814 37.05 75.6981 38.95 75.3314 40.65C75.0648 41.7167 74.5648 42.4667 73.8314 42.9C73.0981 43.3 72.1981 43.5 71.1314 43.5C68.2648 43.5333 65.5981 43.7667 63.1314 44.2C60.6648 44.6 58.5981 45.1833 56.9314 45.95C56.7314 46.05 56.5981 46.2 56.5314 46.4C56.4981 46.6 56.5148 46.8 56.5814 47C56.6814 47.1667 56.7981 47.3 56.9314 47.4C57.0981 47.5 57.2814 47.5167 57.4814 47.45C58.1814 47.15 58.9981 46.85 59.9314 46.55C60.8648 46.25 61.8314 45.9833 62.8314 45.75C63.8314 45.5167 64.8314 45.3333 65.8314 45.2C66.8314 45.0667 67.7814 45 68.6814 45C71.4148 45 73.4481 45.7 74.7814 47.1C76.1481 48.5 76.9481 50.5167 77.1814 53.15C77.3148 55.35 77.0314 57.1833 76.3314 58.65C75.6648 60.0833 74.6981 61.2167 73.4314 62.05C72.1648 62.8833 70.6981 63.4667 69.0314 63.8C67.3648 64.1333 65.6314 64.3 63.8314 64.3C59.4648 64.3 55.9814 63.6167 53.3814 62.25C50.8148 60.8833 49.3481 58.95 48.9814 56.45ZM95.8412 35.55C95.8412 33.45 96.4579 31.8 97.6912 30.6C98.9245 29.3667 100.541 28.75 102.541 28.75C104.575 28.75 106.175 29.3667 107.341 30.6C108.541 31.8 109.141 33.45 109.141 35.55C109.141 36.4167 108.975 37.2167 108.641 37.95C108.308 38.6833 107.841 39.3167 107.241 39.85C106.675 40.3833 105.975 40.8 105.141 41.1C104.341 41.4 103.475 41.55 102.541 41.55C100.541 41.55 98.9245 41 97.6912 39.9C96.4579 38.7667 95.8412 37.3167 95.8412 35.55ZM95.8412 53.5C95.8412 51.4 96.4579 49.7333 97.6912 48.5C98.9245 47.2667 100.541 46.65 102.541 46.65C104.575 46.65 106.175 47.2667 107.341 48.5C108.541 49.7333 109.141 51.4 109.141 53.5C109.141 54.3667 108.975 55.1667 108.641 55.9C108.308 56.6333 107.841 57.2667 107.241 57.8C106.675 58.3333 105.975 58.75 105.141 59.05C104.341 59.35 103.475 59.5 102.541 59.5C101.541 59.5 100.625 59.35 99.7912 59.05C98.9912 58.75 98.2912 58.3333 97.6912 57.8C97.1245 57.2667 96.6745 56.6333 96.3412 55.9C96.0079 55.1667 95.8412 54.3667 95.8412 53.5ZM125.709 52.7C125.709 52.2667 125.709 51.85 125.709 51.45C125.709 51.0167 125.742 50.5833 125.809 50.15H124.759C121.192 50.15 118.375 49.7 116.309 48.8C114.275 47.9 113.192 46.25 113.059 43.85C112.992 42.5833 113.092 41.4833 113.359 40.55C113.625 39.6167 114.009 38.8333 114.509 38.2C115.009 37.5333 115.592 37.0167 116.259 36.65C116.959 36.2833 117.709 36.0333 118.509 35.9C120.109 35.6333 121.575 35.2167 122.909 34.65C124.242 34.0833 125.259 33.3667 125.959 32.5C124.525 32.4667 123.125 32.4333 121.759 32.4C120.425 32.3333 119.125 32.2333 117.859 32.1C116.525 31.9667 115.425 31.5 114.559 30.7C113.725 29.8667 113.309 28.7 113.309 27.2C113.309 25.7 113.725 24.6 114.559 23.9C115.425 23.2 116.525 22.7667 117.859 22.6C120.325 22.3333 122.975 22.15 125.809 22.05C128.642 21.9167 131.442 21.85 134.209 21.85C136.942 21.85 139.725 21.9167 142.559 22.05C145.425 22.15 148.092 22.3333 150.559 22.6C151.892 22.7667 152.975 23.2 153.809 23.9C154.642 24.6 155.059 25.7 155.059 27.2C155.059 28.7 154.642 29.8667 153.809 30.7C152.975 31.5 151.892 31.9667 150.559 32.1C149.325 32.2333 148.025 32.3333 146.659 32.4C145.325 32.4333 143.959 32.4667 142.559 32.5C142.992 32.9667 143.525 33.3833 144.159 33.75C144.792 34.0833 145.475 34.4 146.209 34.7C146.942 34.9667 147.692 35.2167 148.459 35.45C149.225 35.65 149.975 35.8167 150.709 35.95C151.609 36.1167 152.375 36.45 153.009 36.95C153.675 37.45 154.192 38.0667 154.559 38.8C154.959 39.5 155.225 40.3 155.359 41.2C155.492 42.0667 155.509 42.95 155.409 43.85C155.109 46.2167 154.309 47.8833 153.009 48.85C151.742 49.7833 149.792 50.25 147.159 50.25C146.225 50.25 145.375 50.2333 144.609 50.2C143.842 50.1667 143.159 50.1167 142.559 50.05C142.625 50.5167 142.659 50.9667 142.659 51.4C142.659 51.8 142.659 52.2333 142.659 52.7C143.959 52.6333 145.259 52.55 146.559 52.45C147.859 52.35 149.192 52.2167 150.559 52.05C151.525 51.95 152.375 52.05 153.109 52.35C153.875 52.6167 154.509 53.0333 155.009 53.6C155.542 54.1333 155.942 54.7833 156.209 55.55C156.475 56.3167 156.609 57.15 156.609 58.05C156.609 60.25 156.075 61.9 155.009 63C153.975 64.1 152.475 64.75 150.509 64.95C144.942 65.4833 139.492 65.75 134.159 65.75C128.859 65.7833 123.425 65.5167 117.859 64.95C115.959 64.7833 114.475 64.1333 113.409 63C112.342 61.9 111.809 60.25 111.809 58.05C111.809 57.15 111.942 56.3167 112.209 55.55C112.475 54.7833 112.875 54.1333 113.409 53.6C113.942 53.0333 114.575 52.6167 115.309 52.35C116.042 52.05 116.892 51.95 117.859 52.05C119.192 52.1833 120.509 52.3167 121.809 52.45C123.109 52.55 124.409 52.6333 125.709 52.7ZM136.209 46.05C136.375 46.05 136.525 46.0667 136.659 46.1C136.792 46.1 136.925 46.1 137.059 46.1C137.225 46.1 137.359 46.1167 137.459 46.15C137.592 46.15 137.725 46.15 137.859 46.15C137.792 45.7833 137.759 45.4167 137.759 45.05C137.759 44.65 137.759 44.2167 137.759 43.75C137.759 42.0833 137.409 40.6667 136.709 39.5C136.042 38.3333 134.942 37.2833 133.409 36.35C133.209 36.2167 132.992 36.1667 132.759 36.2C132.525 36.2333 132.325 36.3167 132.159 36.45C132.025 36.55 131.959 36.7 131.959 36.9C131.992 37.0667 132.142 37.2167 132.409 37.35C133.575 38.0167 134.509 38.8667 135.209 39.9C135.909 40.9 136.259 42.3167 136.259 44.15C136.259 44.5167 136.259 44.8667 136.259 45.2C136.259 45.5 136.242 45.7833 136.209 46.05ZM194.719 66.25C193.719 66.25 192.802 66.1 191.969 65.8C191.135 65.5333 190.435 65.1167 189.869 64.55C189.302 63.9833 188.885 63.2667 188.619 62.4C188.352 61.5667 188.285 60.5833 188.419 59.45C189.052 54.05 189.369 48.6833 189.369 43.35C189.369 38.0167 189.069 32.7667 188.469 27.6C188.202 25.1 188.669 23.2667 189.869 22.1C191.069 20.9 192.685 20.3 194.719 20.3C196.485 20.3 197.935 20.8 199.069 21.8C200.235 22.8 200.919 24.3333 201.119 26.4C201.685 31.8333 201.969 37.4667 201.969 43.3C201.969 49.1333 201.685 54.7833 201.119 60.25C200.919 62.25 200.235 63.75 199.069 64.75C197.935 65.75 196.485 66.25 194.719 66.25ZM159.019 56.45C158.685 54.35 158.502 52.2667 158.469 50.2C158.435 48.1 158.619 46.15 159.019 44.35C159.219 43.3833 159.452 42.5 159.719 41.7C160.019 40.8667 160.402 40.1667 160.869 39.6C161.369 39 161.985 38.5333 162.719 38.2C163.452 37.8667 164.369 37.7 165.469 37.7C167.069 37.7 168.702 37.6667 170.369 37.6C172.069 37.5 173.719 37.3167 175.319 37.05C175.519 37.0167 175.652 36.9167 175.719 36.75C175.819 36.5833 175.869 36.4 175.869 36.2C175.869 36 175.819 35.8333 175.719 35.7C175.652 35.5333 175.519 35.4667 175.319 35.5C173.819 35.7333 172.285 35.9 170.719 36C169.152 36.1 167.619 36.15 166.119 36.15C164.752 36.15 163.619 36.0167 162.719 35.75C161.819 35.4833 161.085 35.1 160.519 34.6C159.985 34.0667 159.602 33.4167 159.369 32.65C159.135 31.8833 159.019 31 159.019 30C159.019 25.9667 161.485 23.45 166.419 22.45C168.452 22.0833 170.302 21.8833 171.969 21.85C173.669 21.8167 175.402 21.9333 177.169 22.2C178.169 22.3333 179.102 22.5333 179.969 22.8C180.869 23.0667 181.685 23.45 182.419 23.95C183.152 24.45 183.769 25.1 184.269 25.9C184.769 26.6667 185.135 27.6167 185.369 28.75C185.735 30.75 185.919 32.8167 185.919 34.95C185.919 37.05 185.735 38.95 185.369 40.65C185.102 41.7167 184.602 42.4667 183.869 42.9C183.135 43.3 182.235 43.5 181.169 43.5C178.302 43.5333 175.635 43.7667 173.169 44.2C170.702 44.6 168.635 45.1833 166.969 45.95C166.769 46.05 166.635 46.2 166.569 46.4C166.535 46.6 166.552 46.8 166.619 47C166.719 47.1667 166.835 47.3 166.969 47.4C167.135 47.5 167.319 47.5167 167.519 47.45C168.219 47.15 169.035 46.85 169.969 46.55C170.902 46.25 171.869 45.9833 172.869 45.75C173.869 45.5167 174.869 45.3333 175.869 45.2C176.869 45.0667 177.819 45 178.719 45C181.452 45 183.485 45.7 184.819 47.1C186.185 48.5 186.985 50.5167 187.219 53.15C187.352 55.35 187.069 57.1833 186.369 58.65C185.702 60.0833 184.735 61.2167 183.469 62.05C182.202 62.8833 180.735 63.4667 179.069 63.8C177.402 64.1333 175.669 64.3 173.869 64.3C169.502 64.3 166.019 63.6167 163.419 62.25C160.852 60.8833 159.385 58.95 159.019 56.45Z" fill="#4CAC67"/>
<path d="M9.17168 43.45C9.17168 42.65 9.23835 42.0333 9.37168 41.6C7.07168 40.6667 5.43835 39.3667 4.47168 37.7C3.50501 36 3.02168 33.85 3.02168 31.25C3.02168 28.6167 3.47168 26.2333 4.37168 24.1C5.30501 21.9667 6.65501 20.15 8.42168 18.65C10.2217 17.15 12.4383 16 15.0717 15.2C17.705 14.3667 20.7383 13.95 24.1717 13.95C27.605 13.95 30.6383 14.3667 33.2717 15.2C35.905 16 38.1217 17.15 39.9217 18.65C41.7217 20.15 43.0717 21.9667 43.9717 24.1C44.905 26.2333 45.3717 28.6167 45.3717 31.25C45.3717 33.8833 44.8717 36.0333 43.8717 37.7C42.905 39.3667 41.2717 40.6667 38.9717 41.6C39.0717 42.1 39.1217 42.7167 39.1217 43.45V44.3C39.355 44.2667 39.5717 44.25 39.7717 44.25C40.005 44.2167 40.255 44.1833 40.5217 44.15C41.4883 44.05 42.3383 44.15 43.0717 44.45C43.8383 44.7167 44.4717 45.15 44.9717 45.75C45.505 46.35 45.905 47.0667 46.1717 47.9C46.4383 48.7 46.5717 49.5667 46.5717 50.5C46.5717 52.8333 46.0383 54.5833 44.9717 55.75C43.9383 56.95 42.4383 57.65 40.4717 57.85C34.8717 58.4167 29.4217 58.7 24.1217 58.7C18.855 58.7 13.4217 58.4167 7.82168 57.85C5.92168 57.65 4.43835 56.95 3.37168 55.75C2.30501 54.5833 1.77168 52.8333 1.77168 50.5C1.77168 49.5667 1.90501 48.7 2.17168 47.9C2.43835 47.0667 2.83835 46.35 3.37168 45.75C3.90501 45.15 4.53835 44.7167 5.27168 44.45C6.00501 44.15 6.85501 44.05 7.82168 44.15L9.17168 44.3V43.45ZM27.3717 34.65C27.5717 34.65 27.7217 34.55 27.8217 34.35C27.955 34.15 28.0217 33.9333 28.0217 33.7C28.0217 33.4667 27.955 33.25 27.8217 33.05C27.7217 32.85 27.5717 32.75 27.3717 32.75H20.9717C20.7717 32.75 20.605 32.85 20.4717 33.05C20.3717 33.25 20.3217 33.4667 20.3217 33.7C20.3217 33.9333 20.3717 34.15 20.4717 34.35C20.605 34.55 20.7717 34.65 20.9717 34.65H27.3717ZM21.3217 45C23.1883 45.0333 25.0717 45.0333 26.9717 45C26.9383 44.8 26.905 44.5833 26.8717 44.35C26.8717 44.0833 26.8717 43.8 26.8717 43.5C26.4383 43.5 25.9883 43.5167 25.5217 43.55C25.0883 43.55 24.6383 43.55 24.1717 43.55C23.705 43.55 23.2383 43.55 22.7717 43.55C22.3383 43.5167 21.8883 43.5 21.4217 43.5C21.4217 43.8 21.405 44.0833 21.3717 44.35C21.3717 44.5833 21.355 44.8 21.3217 45ZM84.6814 59.25C83.6814 59.25 82.7648 59.1 81.9314 58.8C81.0981 58.5333 80.3981 58.1167 79.8314 57.55C79.2648 56.9833 78.8481 56.2667 78.5814 55.4C78.3148 54.5667 78.2481 53.5833 78.3814 52.45C79.0148 47.05 79.3314 41.6833 79.3314 36.35C79.3314 31.0167 79.0314 25.7667 78.4314 20.6C78.1648 18.1 78.6314 16.2667 79.8314 15.1C81.0314 13.9 82.6481 13.3 84.6814 13.3C86.4481 13.3 87.8981 13.8 89.0314 14.8C90.1981 15.8 90.8814 17.3333 91.0814 19.4C91.6481 24.8333 91.9314 30.4667 91.9314 36.3C91.9314 42.1333 91.6481 47.7833 91.0814 53.25C90.8814 55.25 90.1981 56.75 89.0314 57.75C87.8981 58.75 86.4481 59.25 84.6814 59.25ZM48.9814 49.45C48.6481 47.35 48.4648 45.2667 48.4314 43.2C48.3981 41.1 48.5814 39.15 48.9814 37.35C49.1814 36.3833 49.4148 35.5 49.6814 34.7C49.9814 33.8667 50.3648 33.1667 50.8314 32.6C51.3314 32 51.9481 31.5333 52.6814 31.2C53.4148 30.8667 54.3314 30.7 55.4314 30.7C57.0314 30.7 58.6648 30.6667 60.3314 30.6C62.0314 30.5 63.6814 30.3167 65.2814 30.05C65.4814 30.0167 65.6148 29.9167 65.6814 29.75C65.7814 29.5833 65.8314 29.4 65.8314 29.2C65.8314 29 65.7814 28.8333 65.6814 28.7C65.6148 28.5333 65.4814 28.4667 65.2814 28.5C63.7814 28.7333 62.2481 28.9 60.6814 29C59.1148 29.1 57.5814 29.15 56.0814 29.15C54.7148 29.15 53.5814 29.0167 52.6814 28.75C51.7814 28.4833 51.0481 28.1 50.4814 27.6C49.9481 27.0667 49.5648 26.4167 49.3314 25.65C49.0981 24.8833 48.9814 24 48.9814 23C48.9814 18.9667 51.4481 16.45 56.3814 15.45C58.4148 15.0833 60.2648 14.8833 61.9314 14.85C63.6314 14.8167 65.3648 14.9333 67.1314 15.2C68.1314 15.3333 69.0648 15.5333 69.9314 15.8C70.8314 16.0667 71.6481 16.45 72.3814 16.95C73.1148 17.45 73.7314 18.1 74.2314 18.9C74.7314 19.6667 75.0981 20.6167 75.3314 21.75C75.6981 23.75 75.8814 25.8167 75.8814 27.95C75.8814 30.05 75.6981 31.95 75.3314 33.65C75.0648 34.7167 74.5648 35.4667 73.8314 35.9C73.0981 36.3 72.1981 36.5 71.1314 36.5C68.2648 36.5333 65.5981 36.7667 63.1314 37.2C60.6648 37.6 58.5981 38.1833 56.9314 38.95C56.7314 39.05 56.5981 39.2 56.5314 39.4C56.4981 39.6 56.5148 39.8 56.5814 40C56.6814 40.1667 56.7981 40.3 56.9314 40.4C57.0981 40.5 57.2814 40.5167 57.4814 40.45C58.1814 40.15 58.9981 39.85 59.9314 39.55C60.8648 39.25 61.8314 38.9833 62.8314 38.75C63.8314 38.5167 64.8314 38.3333 65.8314 38.2C66.8314 38.0667 67.7814 38 68.6814 38C71.4148 38 73.4481 38.7 74.7814 40.1C76.1481 41.5 76.9481 43.5167 77.1814 46.15C77.3148 48.35 77.0314 50.1833 76.3314 51.65C75.6648 53.0833 74.6981 54.2167 73.4314 55.05C72.1648 55.8833 70.6981 56.4667 69.0314 56.8C67.3648 57.1333 65.6314 57.3 63.8314 57.3C59.4648 57.3 55.9814 56.6167 53.3814 55.25C50.8148 53.8833 49.3481 51.95 48.9814 49.45ZM95.8412 28.55C95.8412 26.45 96.4579 24.8 97.6912 23.6C98.9245 22.3667 100.541 21.75 102.541 21.75C104.575 21.75 106.175 22.3667 107.341 23.6C108.541 24.8 109.141 26.45 109.141 28.55C109.141 29.4167 108.975 30.2167 108.641 30.95C108.308 31.6833 107.841 32.3167 107.241 32.85C106.675 33.3833 105.975 33.8 105.141 34.1C104.341 34.4 103.475 34.55 102.541 34.55C100.541 34.55 98.9245 34 97.6912 32.9C96.4579 31.7667 95.8412 30.3167 95.8412 28.55ZM95.8412 46.5C95.8412 44.4 96.4579 42.7333 97.6912 41.5C98.9245 40.2667 100.541 39.65 102.541 39.65C104.575 39.65 106.175 40.2667 107.341 41.5C108.541 42.7333 109.141 44.4 109.141 46.5C109.141 47.3667 108.975 48.1667 108.641 48.9C108.308 49.6333 107.841 50.2667 107.241 50.8C106.675 51.3333 105.975 51.75 105.141 52.05C104.341 52.35 103.475 52.5 102.541 52.5C101.541 52.5 100.625 52.35 99.7912 52.05C98.9912 51.75 98.2912 51.3333 97.6912 50.8C97.1245 50.2667 96.6745 49.6333 96.3412 48.9C96.0079 48.1667 95.8412 47.3667 95.8412 46.5ZM125.709 45.7C125.709 45.2667 125.709 44.85 125.709 44.45C125.709 44.0167 125.742 43.5833 125.809 43.15H124.759C121.192 43.15 118.375 42.7 116.309 41.8C114.275 40.9 113.192 39.25 113.059 36.85C112.992 35.5833 113.092 34.4833 113.359 33.55C113.625 32.6167 114.009 31.8333 114.509 31.2C115.009 30.5333 115.592 30.0167 116.259 29.65C116.959 29.2833 117.709 29.0333 118.509 28.9C120.109 28.6333 121.575 28.2167 122.909 27.65C124.242 27.0833 125.259 26.3667 125.959 25.5C124.525 25.4667 123.125 25.4333 121.759 25.4C120.425 25.3333 119.125 25.2333 117.859 25.1C116.525 24.9667 115.425 24.5 114.559 23.7C113.725 22.8667 113.309 21.7 113.309 20.2C113.309 18.7 113.725 17.6 114.559 16.9C115.425 16.2 116.525 15.7667 117.859 15.6C120.325 15.3333 122.975 15.15 125.809 15.05C128.642 14.9167 131.442 14.85 134.209 14.85C136.942 14.85 139.725 14.9167 142.559 15.05C145.425 15.15 148.092 15.3333 150.559 15.6C151.892 15.7667 152.975 16.2 153.809 16.9C154.642 17.6 155.059 18.7 155.059 20.2C155.059 21.7 154.642 22.8667 153.809 23.7C152.975 24.5 151.892 24.9667 150.559 25.1C149.325 25.2333 148.025 25.3333 146.659 25.4C145.325 25.4333 143.959 25.4667 142.559 25.5C142.992 25.9667 143.525 26.3833 144.159 26.75C144.792 27.0833 145.475 27.4 146.209 27.7C146.942 27.9667 147.692 28.2167 148.459 28.45C149.225 28.65 149.975 28.8167 150.709 28.95C151.609 29.1167 152.375 29.45 153.009 29.95C153.675 30.45 154.192 31.0667 154.559 31.8C154.959 32.5 155.225 33.3 155.359 34.2C155.492 35.0667 155.509 35.95 155.409 36.85C155.109 39.2167 154.309 40.8833 153.009 41.85C151.742 42.7833 149.792 43.25 147.159 43.25C146.225 43.25 145.375 43.2333 144.609 43.2C143.842 43.1667 143.159 43.1167 142.559 43.05C142.625 43.5167 142.659 43.9667 142.659 44.4C142.659 44.8 142.659 45.2333 142.659 45.7C143.959 45.6333 145.259 45.55 146.559 45.45C147.859 45.35 149.192 45.2167 150.559 45.05C151.525 44.95 152.375 45.05 153.109 45.35C153.875 45.6167 154.509 46.0333 155.009 46.6C155.542 47.1333 155.942 47.7833 156.209 48.55C156.475 49.3167 156.609 50.15 156.609 51.05C156.609 53.25 156.075 54.9 155.009 56C153.975 57.1 152.475 57.75 150.509 57.95C144.942 58.4833 139.492 58.75 134.159 58.75C128.859 58.7833 123.425 58.5167 117.859 57.95C115.959 57.7833 114.475 57.1333 113.409 56C112.342 54.9 111.809 53.25 111.809 51.05C111.809 50.15 111.942 49.3167 112.209 48.55C112.475 47.7833 112.875 47.1333 113.409 46.6C113.942 46.0333 114.575 45.6167 115.309 45.35C116.042 45.05 116.892 44.95 117.859 45.05C119.192 45.1833 120.509 45.3167 121.809 45.45C123.109 45.55 124.409 45.6333 125.709 45.7ZM136.209 39.05C136.375 39.05 136.525 39.0667 136.659 39.1C136.792 39.1 136.925 39.1 137.059 39.1C137.225 39.1 137.359 39.1167 137.459 39.15C137.592 39.15 137.725 39.15 137.859 39.15C137.792 38.7833 137.759 38.4167 137.759 38.05C137.759 37.65 137.759 37.2167 137.759 36.75C137.759 35.0833 137.409 33.6667 136.709 32.5C136.042 31.3333 134.942 30.2833 133.409 29.35C133.209 29.2167 132.992 29.1667 132.759 29.2C132.525 29.2333 132.325 29.3167 132.159 29.45C132.025 29.55 131.959 29.7 131.959 29.9C131.992 30.0667 132.142 30.2167 132.409 30.35C133.575 31.0167 134.509 31.8667 135.209 32.9C135.909 33.9 136.259 35.3167 136.259 37.15C136.259 37.5167 136.259 37.8667 136.259 38.2C136.259 38.5 136.242 38.7833 136.209 39.05ZM194.719 59.25C193.719 59.25 192.802 59.1 191.969 58.8C191.135 58.5333 190.435 58.1167 189.869 57.55C189.302 56.9833 188.885 56.2667 188.619 55.4C188.352 54.5667 188.285 53.5833 188.419 52.45C189.052 47.05 189.369 41.6833 189.369 36.35C189.369 31.0167 189.069 25.7667 188.469 20.6C188.202 18.1 188.669 16.2667 189.869 15.1C191.069 13.9 192.685 13.3 194.719 13.3C196.485 13.3 197.935 13.8 199.069 14.8C200.235 15.8 200.919 17.3333 201.119 19.4C201.685 24.8333 201.969 30.4667 201.969 36.3C201.969 42.1333 201.685 47.7833 201.119 53.25C200.919 55.25 200.235 56.75 199.069 57.75C197.935 58.75 196.485 59.25 194.719 59.25ZM159.019 49.45C158.685 47.35 158.502 45.2667 158.469 43.2C158.435 41.1 158.619 39.15 159.019 37.35C159.219 36.3833 159.452 35.5 159.719 34.7C160.019 33.8667 160.402 33.1667 160.869 32.6C161.369 32 161.985 31.5333 162.719 31.2C163.452 30.8667 164.369 30.7 165.469 30.7C167.069 30.7 168.702 30.6667 170.369 30.6C172.069 30.5 173.719 30.3167 175.319 30.05C175.519 30.0167 175.652 29.9167 175.719 29.75C175.819 29.5833 175.869 29.4 175.869 29.2C175.869 29 175.819 28.8333 175.719 28.7C175.652 28.5333 175.519 28.4667 175.319 28.5C173.819 28.7333 172.285 28.9 170.719 29C169.152 29.1 167.619 29.15 166.119 29.15C164.752 29.15 163.619 29.0167 162.719 28.75C161.819 28.4833 161.085 28.1 160.519 27.6C159.985 27.0667 159.602 26.4167 159.369 25.65C159.135 24.8833 159.019 24 159.019 23C159.019 18.9667 161.485 16.45 166.419 15.45C168.452 15.0833 170.302 14.8833 171.969 14.85C173.669 14.8167 175.402 14.9333 177.169 15.2C178.169 15.3333 179.102 15.5333 179.969 15.8C180.869 16.0667 181.685 16.45 182.419 16.95C183.152 17.45 183.769 18.1 184.269 18.9C184.769 19.6667 185.135 20.6167 185.369 21.75C185.735 23.75 185.919 25.8167 185.919 27.95C185.919 30.05 185.735 31.95 185.369 33.65C185.102 34.7167 184.602 35.4667 183.869 35.9C183.135 36.3 182.235 36.5 181.169 36.5C178.302 36.5333 175.635 36.7667 173.169 37.2C170.702 37.6 168.635 38.1833 166.969 38.95C166.769 39.05 166.635 39.2 166.569 39.4C166.535 39.6 166.552 39.8 166.619 40C166.719 40.1667 166.835 40.3 166.969 40.4C167.135 40.5 167.319 40.5167 167.519 40.45C168.219 40.15 169.035 39.85 169.969 39.55C170.902 39.25 171.869 38.9833 172.869 38.75C173.869 38.5167 174.869 38.3333 175.869 38.2C176.869 38.0667 177.819 38 178.719 38C181.452 38 183.485 38.7 184.819 40.1C186.185 41.5 186.985 43.5167 187.219 46.15C187.352 48.35 187.069 50.1833 186.369 51.65C185.702 53.0833 184.735 54.2167 183.469 55.05C182.202 55.8833 180.735 56.4667 179.069 56.8C177.402 57.1333 175.669 57.3 173.869 57.3C169.502 57.3 166.019 56.6167 163.419 55.25C160.852 53.8833 159.385 51.95 159.019 49.45Z" fill="#56804A"/>
</svg>
