<svg width="22" height="22" viewBox="0 0 22 22" fill="none" xmlns="http://www.w3.org/2000/svg">
<g clip-path="url(#clip0_268_6642)">
<path d="M1.32374 0.948634L13.497 0.0494941C14.9923 -0.0787659 15.3765 0.00769409 16.3167 0.691234L20.2026 3.42869C20.8435 3.89949 21.0569 4.02775 21.0569 4.54035V19.5538C21.0569 20.4948 20.7152 21.0514 19.5191 21.1363L5.38274 21.9925C4.48514 22.035 4.05768 21.9067 3.58754 21.3077L0.726 17.5866C0.21274 16.9017 0 16.3891 0 15.7898V2.44463C0 1.67529 0.34166 1.03377 1.32374 0.948634Z" fill="white"/>
<path fill-rule="evenodd" clip-rule="evenodd" d="M13.497 0.0497141L1.32374 0.948854C0.34166 1.03377 0 1.67551 0 2.44463V15.7898C0 16.3889 0.21274 16.9015 0.726 17.5866L3.58754 21.3074C4.05768 21.9065 4.48514 22.035 5.38274 21.9923L19.5193 21.1365C20.7145 21.0514 21.0571 20.4948 21.0571 19.554V4.54057C21.0571 4.05437 20.865 3.91423 20.2996 3.49931L16.3167 0.691234C15.3767 0.00769409 14.9923 -0.0787659 13.497 0.0494941V0.0497141ZM5.7024 4.29483C4.54806 4.37249 4.28626 4.39009 3.63066 3.85703L1.96394 2.53131C1.79454 2.35971 1.87968 2.14565 2.30648 2.10297L14.0089 1.24783C14.9917 1.16203 15.5034 1.50457 15.8877 1.80377L17.8948 3.25797C17.9806 3.30131 18.194 3.55717 17.9373 3.55717L5.852 4.28471L5.7024 4.29483ZM4.35666 19.4258V6.68051C4.35666 6.12391 4.5276 5.86717 5.03932 5.82405L18.92 5.01137C19.3908 4.96891 19.6035 5.26811 19.6035 5.82383V18.4842C19.6035 19.0408 19.5177 19.5116 18.7493 19.554L5.46634 20.324C4.69788 20.3665 4.35688 20.1106 4.35688 19.4258H4.35666ZM17.4687 7.36383C17.5538 7.74883 17.4687 8.13383 17.0837 8.17783L16.4435 8.30477V17.7148C15.8875 18.014 15.3758 18.185 14.9481 18.185C14.2646 18.185 14.0939 17.9709 13.5819 17.3298L9.39532 10.743V17.1158L10.7197 17.4156C10.7197 17.4156 10.7197 18.1856 9.65118 18.1856L6.70538 18.3566C6.61958 18.185 6.70538 17.7575 7.00392 17.6724L7.77326 17.459V9.03297L6.7056 8.94651C6.6198 8.56151 6.8332 8.00557 7.4316 7.96245L10.5923 7.74971L14.9483 14.4217V8.51905L13.838 8.39145C13.7522 7.91999 14.0939 7.57745 14.5207 7.53565L17.4687 7.36383Z" fill="#56804A"/>
</g>
<defs>
<clipPath id="clip0_268_6642">
<rect width="22" height="22" fill="white"/>
</clipPath>
</defs>
</svg>
