<svg viewBox="0 0 64 63" fill="none" xmlns="http://www.w3.org/2000/svg">
<g clip-path="url(#clip0_1292_5462)">
<path d="M50.8352 58.1331L50.0544 55.0083C49.7504 53.7924 49.3504 52.5907 48.7168 51.5055C47.1744 48.8595 44.7392 46.7947 41.7968 45.6937L35.6864 43.4084C34.9216 43.1218 34.136 42.9107 33.344 42.7469V45.2811C33.344 47.0136 31.92 48.4153 30.16 48.4153C28.4 48.4153 26.976 47.0136 26.976 45.2811V42.7422C26.176 42.906 25.3824 43.1202 24.6096 43.41L18.4992 45.6953C16.2928 46.5206 14.3712 47.8893 12.8976 49.6375C11.4944 51.3039 10.6464 53.3545 10.2 55.4745L9.63518 58.1614C9.53758 58.6261 9.89758 59.0639 10.3808 59.0639H50.096C50.5904 59.0639 50.9536 58.6056 50.8352 58.1331Z" fill="#C4C4C4"/>
<path d="M35.6865 40.1356H41.3377C42.5793 40.1356 43.6353 39.2473 43.8289 38.0408L44.6385 32.9961C43.9313 33.3237 43.1473 33.5269 42.3057 33.53C41.0049 36.4548 38.6273 38.8 35.6881 40.134L35.6865 40.1356Z" fill="#FF9000"/>
<path d="M17.984 33.5323C16.8912 33.5213 15.88 33.2094 15.04 32.6865L16.448 38.2557C16.728 39.3614 17.7376 40.1378 18.8944 40.1378H24.624C21.6752 38.8038 19.296 36.4571 17.9824 33.5339L17.984 33.5323Z" fill="#FF9000"/>
<path d="M32.256 21.6406C35.7456 23.6298 40.0192 25.512 43.4384 25.2883C43.5936 25.2789 43.7712 25.2253 43.9472 25.1513C44.3952 24.9024 44.7744 24.4646 45.1216 24.5166C45.1376 24.5182 45.1536 24.5087 45.168 24.5134C45.1728 24.2268 45.144 23.9496 45.1312 23.6677C45.1152 23.6708 45.1008 23.6802 45.0832 23.6755C41.5984 22.5604 37.1568 21.8249 32.256 21.6406Z" fill="#FF9000"/>
<path d="M16.7712 26.5013C16.8992 26.7297 17.2096 26.7801 17.3856 26.5864L21.3904 22.1748C18.888 22.5323 16.5984 23.0411 14.6208 23.6742C14.6048 23.6789 14.5936 23.6695 14.5792 23.6679C14.568 23.9987 14.5488 24.331 14.56 24.6554C14.5632 24.7373 14.6272 24.8051 14.7088 24.8098C14.712 24.8098 14.712 24.8129 14.7152 24.8129C15.0544 24.8161 15.9232 24.9862 16.7712 26.5013Z" fill="#FF9000"/>
<path d="M30.16 48.4156C31.92 48.4156 33.344 47.0139 33.344 45.2814V40.9659C34.16 40.7674 34.936 40.476 35.6864 40.1358C38.6272 38.8018 41.0032 36.4551 42.304 33.5319C43.1456 33.5271 43.9312 33.324 44.6368 32.9979C46.376 32.1931 47.584 30.5488 47.584 28.6336C47.584 26.9027 46.5936 25.3907 45.1232 24.5166C44.776 24.463 44.3968 24.9024 43.9488 25.1513C43.7728 25.2253 43.5936 25.2789 43.44 25.2883C40.0192 25.512 35.7456 23.6283 32.2576 21.6406C31.4672 21.6107 30.6672 21.5918 29.8544 21.5918C26.864 21.5918 24.0112 21.7997 21.392 22.1745L17.3872 26.5861C17.2112 26.7798 16.8992 26.7294 16.7728 26.5011C15.9248 24.9859 15.056 24.8158 14.7168 24.8127C14.7136 24.8127 14.7136 24.8095 14.7104 24.8095C13.4928 25.7104 12.7056 27.0854 12.7056 28.632C12.7056 30.3204 13.6304 31.8041 15.0416 32.6845C15.8816 33.209 16.8928 33.5193 17.9856 33.5303C19.2992 36.4551 21.6784 38.8002 24.6272 40.1343C25.3792 40.4745 26.1584 40.7658 26.9776 40.9643V45.2798C26.9776 47.0123 28.4016 48.414 30.1616 48.414L30.16 48.4156Z" fill="#FFC84D"/>
<path d="M26.4157 29.2999C27.196 29.2999 27.8285 28.5525 27.8285 27.6304C27.8285 26.7084 27.196 25.9609 26.4157 25.9609C25.6355 25.9609 25.0029 26.7084 25.0029 27.6304C25.0029 28.5525 25.6355 29.2999 26.4157 29.2999Z" fill="black"/>
<path d="M33.8796 29.2999C34.6599 29.2999 35.2924 28.5525 35.2924 27.6304C35.2924 26.7084 34.6599 25.9609 33.8796 25.9609C33.0993 25.9609 32.4668 26.7084 32.4668 27.6304C32.4668 28.5525 33.0993 29.2999 33.8796 29.2999Z" fill="black"/>
<path d="M31.9071 34.2139C32.2255 34.2139 32.4511 34.5147 32.3663 34.8155C32.0991 35.7731 31.2079 36.4771 30.1487 36.4771C29.0895 36.4771 28.1983 35.7731 27.9311 34.8155C27.8463 34.5147 28.0719 34.2139 28.3903 34.2139H31.9071Z" fill="#5C2F17"/>
<path d="M30.1646 45.9018C28.8478 45.9018 27.6894 45.2576 26.979 44.2764V45.2844C26.979 47.0153 28.4046 48.4202 30.1646 48.4202C31.9246 48.4202 33.3502 47.0169 33.3502 45.2844V44.2764C32.6398 45.256 31.4814 45.9018 30.1646 45.9018Z" fill="#4C6DB5"/>
<path d="M25.3246 51.8094C25.9273 51.8094 26.4158 51.3285 26.4158 50.7353C26.4158 50.142 25.9273 49.6611 25.3246 49.6611C24.7219 49.6611 24.2334 50.142 24.2334 50.7353C24.2334 51.3285 24.7219 51.8094 25.3246 51.8094Z" fill="#4C6DB5"/>
<path d="M35.2943 51.8094C35.897 51.8094 36.3855 51.3285 36.3855 50.7353C36.3855 50.142 35.897 49.6611 35.2943 49.6611C34.6917 49.6611 34.2031 50.142 34.2031 50.7353C34.2031 51.3285 34.6917 51.8094 35.2943 51.8094Z" fill="#4C6DB5"/>
<path d="M25.3246 57.9667C25.9273 57.9667 26.4158 57.4858 26.4158 56.8925C26.4158 56.2993 25.9273 55.8184 25.3246 55.8184C24.7219 55.8184 24.2334 56.2993 24.2334 56.8925C24.2334 57.4858 24.7219 57.9667 25.3246 57.9667Z" fill="#4C6DB5"/>
<path d="M35.2943 57.9667C35.897 57.9667 36.3855 57.4858 36.3855 56.8925C36.3855 56.2993 35.897 55.8184 35.2943 55.8184C34.6917 55.8184 34.2031 56.2993 34.2031 56.8925C34.2031 57.4858 34.6917 57.9667 35.2943 57.9667Z" fill="#4C6DB5"/>
<path d="M49.7441 14.2632C49.7441 11.5652 47.5217 9.37913 44.7825 9.37913C44.6657 9.37913 44.5569 9.4059 44.4417 9.4122C43.2641 7.62772 41.0417 6.40867 38.4577 6.40867C37.6561 6.40867 36.8977 6.54728 36.1809 6.76148C34.9153 5.05733 32.8849 3.9375 30.5761 3.9375C28.0561 3.9375 25.8705 5.26838 24.6497 7.24185C23.6225 6.72525 22.4369 6.40867 21.1553 6.40867C18.5809 6.40867 16.3617 7.62143 15.1825 9.39645C15.1249 9.39488 15.0705 9.37913 15.0129 9.37913C12.2721 9.37913 10.0513 11.5668 10.0513 14.2632C10.0513 16.7816 11.9953 18.8307 14.4817 19.0953V23.5699C14.4817 23.6077 14.4993 23.6392 14.5249 23.6597C14.4977 23.6392 14.4817 23.6077 14.4817 23.5699V19.1347C18.5457 17.8117 23.9393 17.0053 29.8561 17.0053C35.7729 17.0053 41.1649 17.8117 45.2289 19.1347V23.5699V19.1048C47.7585 18.8795 49.7457 16.8116 49.7457 14.2648L49.7441 14.2632Z" fill="#E6E6E6"/>
<path d="M45.0851 23.6739C45.1027 23.6802 45.1171 23.6692 45.1331 23.666C45.1827 23.6581 45.2259 23.6251 45.2259 23.5684C45.2259 23.644 45.1587 23.6959 45.0851 23.6739Z" fill="#E6E6E6"/>
<path d="M29.8528 17.0049C23.936 17.0049 18.544 17.8113 14.48 19.1343V23.5695C14.48 23.6073 14.4976 23.6388 14.5232 23.6593C14.5392 23.6703 14.56 23.6671 14.5792 23.6687C14.5936 23.6687 14.6048 23.6797 14.6208 23.675C16.5984 23.0419 18.888 22.5331 21.3904 22.1756C24.0096 21.8008 26.8624 21.5929 29.8528 21.5929C30.6656 21.5929 31.4656 21.6118 32.256 21.6417C37.1552 21.826 41.6 22.5615 45.0848 23.6766C45.1568 23.7002 45.2272 23.6467 45.2272 23.5711V19.1359C41.1632 17.8129 35.7696 17.0065 29.8528 17.0065V17.0049Z" fill="#C4C4C4"/>
<path d="M52.1377 35.7209C49.9697 34.609 47.0673 35.5319 45.3345 38.8079C44.2353 40.8853 44.4337 43.3093 44.9441 44.9173C45.2465 45.8718 45.0705 46.9129 44.5793 47.7886L44.1489 48.5146L37.8945 59.0608H41.7873L46.2353 49.5841L46.6881 48.6202C47.1441 47.7082 47.9569 47.0483 48.9185 46.6782C50.4481 46.0891 52.4401 44.9268 53.4689 42.9832C55.2033 39.7072 54.3073 36.8329 52.1393 35.7193L52.1377 35.7209Z" fill="#807057"/>
</g>
<defs>
<clipPath id="clip0_1292_5462">
<rect width="64" height="63" fill="white"/>
</clipPath>
</defs>
</svg>
