<svg  viewBox="0 0 204 205" fill="none" xmlns="http://www.w3.org/2000/svg">
<g clip-path="url(#clip0_334_8056)">
<path d="M102 192.188C151.291 192.188 191.25 152.033 191.25 102.5C191.25 52.967 151.291 12.8125 102 12.8125C52.7086 12.8125 12.75 52.967 12.75 102.5C12.75 152.033 52.7086 192.188 102 192.188Z" fill="#FFC84D"/>
<path d="M67.4118 69.5518C61.5978 72.2783 58.8642 75.1893 56.5896 77.7877C55.2789 79.2842 53.4225 78.5974 53.4378 76.4654C53.4735 71.8581 56.304 65.6004 63.9234 62.0283C71.5428 58.4613 78.132 60.3012 81.6663 63.2378C83.3034 64.5959 82.6353 66.4717 80.6463 66.5178C77.2038 66.5947 73.2258 66.8304 67.4118 69.5518Z" fill="black"/>
<path d="M136.588 69.5518C142.402 72.2783 145.136 75.1893 147.41 77.7877C148.721 79.2842 150.577 78.5974 150.562 76.4654C150.526 71.8581 147.696 65.6004 140.077 62.0283C132.457 58.4613 125.868 60.3012 122.334 63.2378C120.697 64.5959 121.365 66.4717 123.354 66.5178C126.796 66.5947 130.774 66.8304 136.588 69.5518Z" fill="black"/>
<path d="M102 161.094C109.042 161.094 114.75 155.357 114.75 148.281C114.75 141.205 109.042 135.469 102 135.469C94.9584 135.469 89.25 141.205 89.25 148.281C89.25 155.357 94.9584 161.094 102 161.094Z" fill="#FF6D00"/>
<path d="M117.677 100.701L131.228 181.717C139.286 178.714 146.752 174.527 153.428 169.33L141.948 100.701H117.677Z" fill="white"/>
<path d="M62.0465 100.701L50.5664 169.33C57.2423 174.527 64.7087 178.709 72.7667 181.717L86.3174 100.701H62.0414H62.0465Z" fill="white"/>
<path d="M144.223 103.008C145.559 103.474 147.094 102.654 146.798 101.619C145.151 95.8585 138.174 91.5381 129.815 91.5381C121.457 91.5381 114.48 95.8636 112.832 101.619C112.537 102.654 114.072 103.474 115.408 103.008C118.32 101.988 123.293 100.696 129.815 100.696C136.338 100.696 141.311 101.983 144.223 103.008Z" fill="black"/>
<path d="M59.777 103.008C58.4408 103.474 56.9057 102.654 57.2015 101.619C58.8488 95.8585 65.8256 91.5381 74.1845 91.5381C82.5434 91.5381 89.5202 95.8636 91.1675 101.619C91.4633 102.654 89.9282 103.474 88.592 103.008C85.6799 101.988 80.7074 100.696 74.1845 100.696C67.6616 100.696 62.6891 101.983 59.777 103.008Z" fill="black"/>
</g>
<defs>
<clipPath id="clip0_334_8056">
<rect width="204" height="205" fill="white"/>
</clipPath>
</defs>
</svg>
