<svg  viewBox="0 0 40 40" fill="none" xmlns="http://www.w3.org/2000/svg">
<g clip-path="url(#clip0_1299_5488)">
<path d="M19.9998 37.4088C29.6145 37.4088 37.4088 29.6145 37.4088 19.9998C37.4088 10.3851 29.6145 2.59082 19.9998 2.59082C10.3851 2.59082 2.59082 10.3851 2.59082 19.9998C2.59082 29.6145 10.3851 37.4088 19.9998 37.4088Z" fill="#FFC84D"/>
<path d="M19.9998 31.7945C21.1336 31.7945 22.0528 30.8753 22.0528 29.7415C22.0528 28.6076 21.1336 27.6885 19.9998 27.6885C18.8659 27.6885 17.9468 28.6076 17.9468 29.7415C17.9468 30.8753 18.8659 31.7945 19.9998 31.7945Z" fill="#FF6D00"/>
<path d="M26.8108 16.7203H22.3388C21.9528 16.7203 21.6018 16.4983 21.4358 16.1493C21.2698 15.8003 21.3197 15.3873 21.5637 15.0883L23.9888 12.1133H22.2188C21.6658 12.1133 21.2188 11.6653 21.2188 11.1133C21.2188 10.5613 21.6658 10.1133 22.2188 10.1133H26.0938C26.4798 10.1133 26.8307 10.3353 26.9967 10.6843C27.1627 11.0333 27.1127 11.4463 26.8687 11.7453L24.4438 14.7203H26.8097C27.3627 14.7203 27.8097 15.1683 27.8097 15.7203C27.8097 16.2723 27.3627 16.7203 26.8097 16.7203H26.8108Z" fill="#6391FF"/>
<path d="M35.2029 14.2708H29.1639C28.7779 14.2708 28.4269 14.0488 28.2609 13.6998C28.0949 13.3508 28.1449 12.9378 28.3889 12.6388L32.1289 8.0498H29.0029C28.4499 8.0498 28.0029 7.6018 28.0029 7.0498C28.0029 6.4978 28.4499 6.0498 29.0029 6.0498H34.2339C34.6199 6.0498 34.9709 6.2718 35.1369 6.6208C35.3029 6.9698 35.2519 7.3828 35.0089 7.6818L31.2689 12.2708H35.2029C35.7559 12.2708 36.2029 12.7188 36.2029 13.2708C36.2029 13.8228 35.7559 14.2708 35.2029 14.2708Z" fill="#6391FF"/>
<path d="M12.1938 21.5234C11.9468 21.4014 11.6628 21.6154 11.7178 21.8854C12.0228 23.3844 13.3128 24.5104 14.8578 24.5104C16.4028 24.5104 17.6928 23.3844 17.9978 21.8854C18.0528 21.6154 17.7688 21.4014 17.5218 21.5234C16.9828 21.7894 16.0648 22.1244 14.8578 22.1244C13.6508 22.1244 12.7328 21.7894 12.1938 21.5234Z" fill="black"/>
<path d="M27.806 21.5234C28.053 21.4014 28.337 21.6154 28.282 21.8854C27.977 23.3844 26.687 24.5104 25.142 24.5104C23.597 24.5104 22.307 23.3844 22.002 21.8854C21.947 21.6154 22.231 21.4014 22.478 21.5234C23.017 21.7894 23.935 22.1244 25.142 22.1244C26.348 22.1244 27.267 21.7894 27.806 21.5234Z" fill="black"/>
</g>
<defs>
<clipPath id="clip0_1299_5488">
<rect width="40" height="40" fill="white"/>
</clipPath>
</defs>
</svg>
